<svg width="512" height="512" xmlns="http://www.w3.org/2000/svg">

 <g>
  <title>background</title>
  <rect fill="none" id="canvas_background" height="402" width="582" y="-1" x="-1"/>
 </g>
 <g>
  <title>Layer 1</title>
  <g stroke="null" id="svg_1">
   <g stroke="null" id="svg_2">
    <path stroke="null" id="svg_3" d="m460.879677,421.49988l-35.190749,-58.60286c-16.222829,-27.048729 -24.805681,-58.008731 -24.805681,-89.562862l0,-51.334132c0,-79.017304 -64.338264,-143.333021 -143.383267,-143.333021s-143.383267,64.315718 -143.383267,143.333021l0,51.334132c0,31.554131 -8.582852,62.514133 -24.805681,89.562862l-35.190749,58.60286c-1.904953,3.153014 -1.94624,7.105558 -0.143064,10.299844c1.82334,3.214442 5.243423,5.201273 8.930429,5.201273l389.183703,0c3.687007,0 7.108049,-1.985871 8.930429,-5.201273c1.803177,-3.195246 1.76285,-7.146831 -0.142103,-10.299844zm-379.884573,-4.975715l25.870496,-43.102703c18.147945,-30.222859 27.734162,-64.827303 27.734162,-100.087305l0,-51.334132c0,-67.755718 55.120748,-122.85715 122.900218,-122.85715s122.900218,55.101432 122.900218,122.85715l0,51.334132c0,35.260002 9.586217,69.864446 27.713999,100.087305l25.890659,43.102703l-353.009752,0z" fill="#A8A8A8"/>
   </g>
  </g>
  <g stroke="null" id="svg_4">
   <g stroke="null" id="svg_5">
    <path stroke="null" stroke-width="0" id="svg_6" d="m258.666993,28.999999c-17.464461,0 -31.666999,12.159334 -31.666999,27.111324l0,27.111324c0,3.740698 3.546924,6.777354 7.916935,6.777354s7.916935,-3.036656 7.916935,-6.77799l0,-27.110688c0,-7.482667 7.093105,-13.555344 15.833129,-13.555344s15.833129,6.072677 15.833129,13.555344l0,27.111324c0,3.740698 3.546924,6.777354 7.916935,6.777354s7.916935,-3.036656 7.916935,-6.77799l0,-27.110688c0,-14.95199 -14.202538,-27.111324 -31.666999,-27.111324z" fill="#A8A8A8"/>
   </g>
  </g>
  <g stroke="null" id="svg_7">
   <g stroke="null" id="svg_8">
    <path stroke="null" id="svg_9" d="m296.448938,425.395796c-2.472418,-3.589373 -7.820829,-4.765799 -12.011116,-2.699983c-4.191109,2.11177 -5.593352,6.741828 -3.139017,10.331201c2.27926,3.333444 3.52451,7.330041 3.52451,11.266544c0,12.473371 -11.800698,22.623583 -26.302315,22.623583c-14.501617,0 -26.302315,-10.150212 -26.302315,-22.623583c0,-3.936503 1.24525,-7.933101 3.52451,-11.266544c2.437074,-3.604927 1.034832,-8.220137 -3.139017,-10.331201c-4.225631,-2.066523 -9.556782,-0.890097 -12.011116,2.699983c-3.875482,5.701143 -5.927062,12.231581 -5.927062,18.898469c0.000822,20.798142 19.656871,37.705736 43.837739,37.705736s43.836917,-16.907593 43.872261,-37.705736c0,-6.666887 -2.051581,-13.197326 -5.927062,-18.898469z" fill="#A8A8A8"/>
   </g>
  </g>
  <g id="svg_10"/>
  <g id="svg_11"/>
  <g id="svg_12"/>
  <g id="svg_13"/>
  <g id="svg_14"/>
  <g id="svg_15"/>
  <g id="svg_16"/>
  <g id="svg_17"/>
  <g id="svg_18"/>
  <g id="svg_19"/>
  <g id="svg_20"/>
  <g id="svg_21"/>
  <g id="svg_22"/>
  <g id="svg_23"/>
  <g id="svg_24"/>
 </g>
</svg>
